<?xml version="1.0" encoding="utf-8"?>
<!-- Generator: Adobe Illustrator 23.0.2, SVG Export Plug-In . SVG Version: 6.00 Build 0)  -->
<svg version="1.1" id="Layer_1" xmlns="http://www.w3.org/2000/svg" xmlns:xlink="http://www.w3.org/1999/xlink" x="0px" y="0px"
	 viewBox="0 0 233 65" style="enable-background:new 0 0 233 65;" xml:space="preserve">
<style type="text/css">
	.st0{display:none;}
	.st1{display:inline;}
	.st2{fill:url(#SVGID_1_);}
	.st3{fill:url(#SVGID_2_);}
	.st4{fill:url(#SVGID_3_);}
	.st5{fill:#185076;}
	.st6{fill:url(#SVGID_4_);}
	.st7{fill:#183E77;}
	.st8{fill:#28A4AB;}
	.st9{fill:#FFFFFF;}
</style>
<g id="ALL" class="st0">
	<g class="st1">
		<radialGradient id="SVGID_1_" cx="43.0229" cy="17.1931" r="29.6135" gradientUnits="userSpaceOnUse">
			<stop  offset="0" style="stop-color:#32ABB7"/>
			<stop  offset="0.2757" style="stop-color:#31A1B4"/>
			<stop  offset="0.7823" style="stop-color:#2F88AB"/>
			<stop  offset="1" style="stop-color:#2E7CA7"/>
		</radialGradient>
		<path class="st2" d="M81.2,16.6c-0.1,0-0.3,0-0.4,0c-1.3-0.1-2.6-0.2-3.8-0.2c-4.8-0.2-9.7,0.1-14.5,0.7
			c-6.4,0.9-12.8,2.5-18.8,5.1c-3.2,1.4-6.3,3.1-9.1,5.2c-0.6,0.5-6.2,5.2-7.7,6.9c0,0-0.1,0.1-0.1,0.1c0.7-4.7-2.5-9.9-7.7-14.3
			c-4.5-3.8-9.3-6.1-13.5-5.7c-0.6,0.1-1-0.7-0.6-1.1C23-5.6,56.5-4.2,81.2,16.6z"/>
		<radialGradient id="SVGID_2_" cx="42.9806" cy="47.1839" r="29.77" gradientUnits="userSpaceOnUse">
			<stop  offset="0" style="stop-color:#32ABB7"/>
			<stop  offset="0.2757" style="stop-color:#31A1B4"/>
			<stop  offset="0.7823" style="stop-color:#2F88AB"/>
			<stop  offset="1" style="stop-color:#2E7CA7"/>
		</radialGradient>
		<path class="st3" d="M4.8,52.5c0.1,0,0.3,0,0.4,0c1.3,0,2.6-0.1,3.8-0.1c4.8-0.3,9.6-1,14.3-2.1c6.3-1.5,12.5-3.7,18.2-6.9
			c3.1-1.7,5.9-3.8,8.6-6.1c0.6-0.5,5.7-5.8,7-7.7c0,0,0-0.1,0.1-0.1c-0.2,4.7,3.5,9.6,9.1,13.5c4.9,3.4,9.9,5.1,14,4.3
			c0.6-0.1,1,0.6,0.7,1C65,68.8,31.5,70.8,4.8,52.5z"/>
		<g>
			
				<radialGradient id="SVGID_3_" cx="1986.7196" cy="-67.105" r="13.8565" gradientTransform="matrix(-0.8208 2.868291e-02 2.983193e-02 -0.8185 1658.8641 -64.9064)" gradientUnits="userSpaceOnUse">
				<stop  offset="0" style="stop-color:#32ABB7"/>
				<stop  offset="0.2757" style="stop-color:#31A1B4"/>
				<stop  offset="0.7823" style="stop-color:#2F88AB"/>
				<stop  offset="1" style="stop-color:#2E7CA7"/>
			</radialGradient>
			<path class="st4" d="M23,42.5c-0.1,1.9,1.4,3.3,3.3,3.3c1.9-0.1,3.5-1.6,3.5-3.5c0.1-1.4-0.9-2.2-1.7-3.1c-0.9-1-1.6-2.4-1.5-3.9
				c-0.1,1.4-0.6,2.8-1.6,3.8C24.1,40.2,23,40.9,23,42.5z"/>
			<path class="st5" d="M26.6,35.3C26.6,35.3,26.6,35.3,26.6,35.3C26.6,35.3,26.6,35.3,26.6,35.3z"/>
		</g>
		<g>
			
				<radialGradient id="SVGID_4_" cx="-150.2126" cy="-944.4192" r="13.8565" gradientTransform="matrix(0.8208 -2.868291e-02 -2.983193e-02 0.8185 152.9543 786.2267)" gradientUnits="userSpaceOnUse">
				<stop  offset="0" style="stop-color:#32ABB7"/>
				<stop  offset="0.2757" style="stop-color:#31A1B4"/>
				<stop  offset="0.7823" style="stop-color:#2F88AB"/>
				<stop  offset="1" style="stop-color:#2E7CA7"/>
			</radialGradient>
			<path class="st6" d="M61,22c0.1-1.9-1.4-3.3-3.3-3.3c-1.9,0.1-3.5,1.6-3.5,3.5c-0.1,1.4,0.9,2.2,1.7,3.1c0.9,1,1.6,2.4,1.5,3.9
				c0.1-1.4,0.6-2.8,1.6-3.8C59.9,24.3,60.9,23.6,61,22z"/>
			<path class="st5" d="M57.4,29.2C57.4,29.2,57.4,29.2,57.4,29.2C57.4,29.2,57.4,29.2,57.4,29.2z"/>
		</g>
	</g>
	<g id="ZLD_2_" class="st1">
		<g>
			<g id="_x37_B_10_">
				<g>
					<path class="st7" d="M151.3,19v36.8h14.9V19H151.3z M154.1,49.2h-1.7v-1.7h1.7V49.2z M154.1,47.1h-1.7v-1.7h1.7V47.1z
						 M154.1,45h-1.7v-1.7h1.7V45z M154.1,42.9h-1.7v-1.7h1.7V42.9z M154.2,40.8h-1.7v-1.7h1.7V40.8z M154.2,38.7h-1.7V37h1.7V38.7z
						 M154.2,36.6h-1.7V35h1.7V36.6z M154.2,34.6h-1.7v-1.7h1.7V34.6z M154.2,32.5h-1.7v-1.7h1.7V32.5z M154.2,30.4h-1.7v-1.7h1.7
						V30.4z M154.3,28.3h-1.7v-1.7h1.7V28.3z M154.3,26.2h-1.7v-1.7h1.7V26.2z M154.3,24.1h-1.7v-1.7h1.7V24.1z M154.3,22h-1.7v-1.7
						h1.7V22z M156.2,49.2h-1.7v-1.7h1.7V49.2z M156.2,47.1h-1.7v-1.7h1.7V47.1z M156.3,45h-1.7v-1.7h1.7V45z M156.3,42.9h-1.7v-1.7
						h1.7V42.9z M156.3,40.8h-1.7v-1.7h1.7V40.8z M156.3,38.7h-1.7V37h1.7V38.7z M156.3,36.6h-1.7V35h1.7V36.6z M156.3,34.6h-1.7
						v-1.7h1.7V34.6z M156.4,32.5h-1.7v-1.7h1.7V32.5z M156.4,30.4h-1.7v-1.7h1.7V30.4z M156.4,28.3h-1.7v-1.7h1.7V28.3z
						 M156.4,26.2h-1.7v-1.7h1.7V26.2z M156.4,24.1h-1.7v-1.7h1.7V24.1z M156.4,22h-1.7v-1.7h1.7V22z M158.4,49.2h-1.7v-1.7h1.7
						V49.2z M158.4,47.1h-1.7v-1.7h1.7V47.1z M158.4,45h-1.7v-1.7h1.7V45z M158.4,42.9h-1.7v-1.7h1.7V42.9z M158.5,40.8h-1.7v-1.7
						h1.7V40.8z M158.5,38.7h-1.7V37h1.7V38.7z M158.5,36.6h-1.7V35h1.7V36.6z M158.5,34.6h-1.7v-1.7h1.7V34.6z M158.5,32.5h-1.7
						v-1.7h1.7V32.5z M158.5,30.4h-1.7v-1.7h1.7V30.4z M158.6,28.3h-1.7v-1.7h1.7V28.3z M158.6,26.2h-1.7v-1.7h1.7V26.2z
						 M158.6,24.1h-1.7v-1.7h1.7V24.1z M158.6,22h-1.7v-1.7h1.7V22z M160.6,49.2h-1.7v-1.7h1.7V49.2z M160.6,47.1h-1.7v-1.7h1.7
						V47.1z M160.6,45h-1.7v-1.7h1.7V45z M160.6,42.9h-1.7v-1.7h1.7V42.9z M160.6,40.8h-1.7v-1.7h1.7V40.8z M160.6,38.7h-1.7V37h1.7
						V38.7z M160.6,36.6H159V35h1.7V36.6z M160.6,34.6H159v-1.7h1.7V34.6z M160.7,32.5H159v-1.7h1.7V32.5z M160.7,30.4H159v-1.7h1.7
						V30.4z M160.7,28.3H159v-1.7h1.7V28.3z M160.7,26.2H159v-1.7h1.7V26.2z M160.7,24.1H159v-1.7h1.7V24.1z M160.7,22H159v-1.7h1.7
						V22z M162.7,49.2H161v-1.7h1.7V49.2z M162.7,47.1H161v-1.7h1.7V47.1z M162.7,45H161v-1.7h1.7V45z M162.7,42.9H161v-1.7h1.7
						V42.9z M162.8,40.8h-1.7v-1.7h1.7V40.8z M162.8,38.7h-1.7V37h1.7V38.7z M162.8,36.6h-1.7V35h1.7V36.6z M162.8,34.6h-1.7v-1.7
						h1.7V34.6z M162.8,32.5h-1.7v-1.7h1.7V32.5z M162.8,30.4h-1.7v-1.7h1.7V30.4z M162.9,28.3h-1.7v-1.7h1.7V28.3z M162.9,26.2
						h-1.7v-1.7h1.7V26.2z M162.9,24.1h-1.7v-1.7h1.7V24.1z M162.9,22h-1.7v-1.7h1.7V22z M164.9,49.2h-1.7v-1.7h1.7V49.2z
						 M164.9,47.1h-1.7v-1.7h1.7V47.1z M164.9,45h-1.7v-1.7h1.7V45z M164.9,42.9h-1.7v-1.7h1.7V42.9z M164.9,40.8h-1.7v-1.7h1.7
						V40.8z M164.9,38.7h-1.7V37h1.7V38.7z M165,36.6h-1.7V35h1.7V36.6z M165,34.6h-1.7v-1.7h1.7V34.6z M165,32.5h-1.7v-1.7h1.7
						V32.5z M165,30.4h-1.7v-1.7h1.7V30.4z M165,28.3h-1.7v-1.7h1.7V28.3z M165,26.2h-1.7v-1.7h1.7V26.2z M165.1,24.1h-1.7v-1.7h1.7
						V24.1z M165.1,22h-1.7v-1.7h1.7V22z"/>
					<polygon class="st7" points="164.9,19 152.6,19 152.6,7.7 					"/>
				</g>
			</g>
			<g id="D_10_">
				<g>
					<path class="st7" d="M181.6,57.3V8h21.7c8.7,0,15,2.1,19,6.3c4,4.2,6,10.3,6,18.4c0,8-2,14.1-6,18.3c-4,4.2-10.3,6.3-19,6.3
						H181.6z M196.4,46.2h5c3.6,0,6.4-1.1,8.5-3.2c2.1-2.1,3.1-5.6,3.1-10.3c0-4.8-1-8.2-3.1-10.4c-2.1-2.1-4.9-3.2-8.5-3.2h-5V46.2
						z"/>
				</g>
			</g>
			<polyline id="Z_9_" class="st8" points="98.4,8 146.9,8 138.4,18.3 116.8,46.1 147,46.1 147,57.3 89.7,57.3 98.2,46.8 
				120.5,19.3 98.4,19.3 98.4,8 			"/>
			<g id="L_10_">
				<polygon class="st7" points="185.9,46.1 185.9,57.3 176.9,57.3 151.3,57.3 151.3,39.2 166.2,20.8 166.2,46.1 				"/>
			</g>
		</g>
	</g>
</g>
<g id="_x31_" class="st0">
	<g class="st1">
		<g>
			<path class="st7" d="M81.2,16.6c-0.1,0-0.3,0-0.4,0c-1.3-0.1-2.6-0.2-3.8-0.2c-4.8-0.2-9.7,0.1-14.5,0.7
				c-6.4,0.9-12.8,2.5-18.8,5.1c-3.2,1.4-6.3,3.1-9.1,5.2c-0.6,0.5-6.2,5.2-7.7,6.9c0,0-0.1,0.1-0.1,0.1c0.7-4.7-2.5-9.9-7.7-14.3
				c-4.5-3.8-9.3-6.1-13.5-5.7c-0.6,0.1-1-0.7-0.6-1.1C23-5.6,56.5-4.2,81.2,16.6z"/>
			<path class="st7" d="M4.8,52.5c0.1,0,0.3,0,0.4,0c1.3,0,2.6-0.1,3.8-0.1c4.8-0.3,9.6-1,14.3-2.1c6.3-1.5,12.5-3.7,18.2-6.9
				c3.1-1.7,5.9-3.8,8.6-6.1c0.6-0.5,5.7-5.8,7-7.7c0,0,0-0.1,0.1-0.1c-0.2,4.7,3.5,9.6,9.1,13.5c4.9,3.4,9.9,5.1,14,4.3
				c0.6-0.1,1,0.6,0.7,1C65,68.8,31.5,70.8,4.8,52.5z"/>
			<g>
				<path class="st7" d="M23,42.5c-0.1,1.9,1.4,3.3,3.3,3.3c1.9-0.1,3.5-1.6,3.5-3.5c0.1-1.4-0.9-2.2-1.7-3.1
					c-0.9-1-1.6-2.4-1.5-3.9c-0.1,1.4-0.6,2.8-1.6,3.8C24.1,40.2,23,40.9,23,42.5z"/>
				<path class="st7" d="M26.6,35.3C26.6,35.3,26.6,35.3,26.6,35.3C26.6,35.3,26.6,35.3,26.6,35.3z"/>
			</g>
			<g>
				<path class="st7" d="M61,22c0.1-1.9-1.4-3.3-3.3-3.3c-1.9,0.1-3.5,1.6-3.5,3.5c-0.1,1.4,0.9,2.2,1.7,3.1c0.9,1,1.6,2.4,1.5,3.9
					c0.1-1.4,0.6-2.8,1.6-3.8C59.9,24.3,60.9,23.6,61,22z"/>
				<path class="st7" d="M57.4,29.2C57.4,29.2,57.4,29.2,57.4,29.2C57.4,29.2,57.4,29.2,57.4,29.2z"/>
			</g>
		</g>
		<g id="ZLD_12_">
			<g>
				<g id="_x37_B_14_">
					<g>
						<path class="st7" d="M151.3,19v36.8h14.9V19H151.3z M154.1,49.2h-1.7v-1.7h1.7V49.2z M154.1,47.1h-1.7v-1.7h1.7V47.1z
							 M154.1,45h-1.7v-1.7h1.7V45z M154.1,42.9h-1.7v-1.7h1.7V42.9z M154.2,40.8h-1.7v-1.7h1.7V40.8z M154.2,38.7h-1.7V37h1.7V38.7
							z M154.2,36.6h-1.7V35h1.7V36.6z M154.2,34.6h-1.7v-1.7h1.7V34.6z M154.2,32.5h-1.7v-1.7h1.7V32.5z M154.2,30.4h-1.7v-1.7h1.7
							V30.4z M154.3,28.3h-1.7v-1.7h1.7V28.3z M154.3,26.2h-1.7v-1.7h1.7V26.2z M154.3,24.1h-1.7v-1.7h1.7V24.1z M154.3,22h-1.7
							v-1.7h1.7V22z M156.2,49.2h-1.7v-1.7h1.7V49.2z M156.2,47.1h-1.7v-1.7h1.7V47.1z M156.3,45h-1.7v-1.7h1.7V45z M156.3,42.9
							h-1.7v-1.7h1.7V42.9z M156.3,40.8h-1.7v-1.7h1.7V40.8z M156.3,38.7h-1.7V37h1.7V38.7z M156.3,36.6h-1.7V35h1.7V36.6z
							 M156.3,34.6h-1.7v-1.7h1.7V34.6z M156.4,32.5h-1.7v-1.7h1.7V32.5z M156.4,30.4h-1.7v-1.7h1.7V30.4z M156.4,28.3h-1.7v-1.7
							h1.7V28.3z M156.4,26.2h-1.7v-1.7h1.7V26.2z M156.4,24.1h-1.7v-1.7h1.7V24.1z M156.4,22h-1.7v-1.7h1.7V22z M158.4,49.2h-1.7
							v-1.7h1.7V49.2z M158.4,47.1h-1.7v-1.7h1.7V47.1z M158.4,45h-1.7v-1.7h1.7V45z M158.4,42.9h-1.7v-1.7h1.7V42.9z M158.5,40.8
							h-1.7v-1.7h1.7V40.8z M158.5,38.7h-1.7V37h1.7V38.7z M158.5,36.6h-1.7V35h1.7V36.6z M158.5,34.6h-1.7v-1.7h1.7V34.6z
							 M158.5,32.5h-1.7v-1.7h1.7V32.5z M158.5,30.4h-1.7v-1.7h1.7V30.4z M158.6,28.3h-1.7v-1.7h1.7V28.3z M158.6,26.2h-1.7v-1.7
							h1.7V26.2z M158.6,24.1h-1.7v-1.7h1.7V24.1z M158.6,22h-1.7v-1.7h1.7V22z M160.6,49.2h-1.7v-1.7h1.7V49.2z M160.6,47.1h-1.7
							v-1.7h1.7V47.1z M160.6,45h-1.7v-1.7h1.7V45z M160.6,42.9h-1.7v-1.7h1.7V42.9z M160.6,40.8h-1.7v-1.7h1.7V40.8z M160.6,38.7
							h-1.7V37h1.7V38.7z M160.6,36.6H159V35h1.7V36.6z M160.6,34.6H159v-1.7h1.7V34.6z M160.7,32.5H159v-1.7h1.7V32.5z M160.7,30.4
							H159v-1.7h1.7V30.4z M160.7,28.3H159v-1.7h1.7V28.3z M160.7,26.2H159v-1.7h1.7V26.2z M160.7,24.1H159v-1.7h1.7V24.1z
							 M160.7,22H159v-1.7h1.7V22z M162.7,49.2H161v-1.7h1.7V49.2z M162.7,47.1H161v-1.7h1.7V47.1z M162.7,45H161v-1.7h1.7V45z
							 M162.7,42.9H161v-1.7h1.7V42.9z M162.8,40.8h-1.7v-1.7h1.7V40.8z M162.8,38.7h-1.7V37h1.7V38.7z M162.8,36.6h-1.7V35h1.7
							V36.6z M162.8,34.6h-1.7v-1.7h1.7V34.6z M162.8,32.5h-1.7v-1.7h1.7V32.5z M162.8,30.4h-1.7v-1.7h1.7V30.4z M162.9,28.3h-1.7
							v-1.7h1.7V28.3z M162.9,26.2h-1.7v-1.7h1.7V26.2z M162.9,24.1h-1.7v-1.7h1.7V24.1z M162.9,22h-1.7v-1.7h1.7V22z M164.9,49.2
							h-1.7v-1.7h1.7V49.2z M164.9,47.1h-1.7v-1.7h1.7V47.1z M164.9,45h-1.7v-1.7h1.7V45z M164.9,42.9h-1.7v-1.7h1.7V42.9z
							 M164.9,40.8h-1.7v-1.7h1.7V40.8z M164.9,38.7h-1.7V37h1.7V38.7z M165,36.6h-1.7V35h1.7V36.6z M165,34.6h-1.7v-1.7h1.7V34.6z
							 M165,32.5h-1.7v-1.7h1.7V32.5z M165,30.4h-1.7v-1.7h1.7V30.4z M165,28.3h-1.7v-1.7h1.7V28.3z M165,26.2h-1.7v-1.7h1.7V26.2z
							 M165.1,24.1h-1.7v-1.7h1.7V24.1z M165.1,22h-1.7v-1.7h1.7V22z"/>
						<polygon class="st7" points="164.9,19 152.6,19 152.6,7.7 						"/>
					</g>
				</g>
				<g id="D_14_">
					<g>
						<path class="st7" d="M181.6,57.3V8h21.7c8.7,0,15,2.1,19,6.3c4,4.2,6,10.3,6,18.4c0,8-2,14.1-6,18.3c-4,4.2-10.3,6.3-19,6.3
							H181.6z M196.4,46.2h5c3.6,0,6.4-1.1,8.5-3.2c2.1-2.1,3.1-5.6,3.1-10.3c0-4.8-1-8.2-3.1-10.4c-2.1-2.1-4.9-3.2-8.5-3.2h-5
							V46.2z"/>
					</g>
				</g>
				<polyline id="Z_12_" class="st7" points="98.4,8 146.9,8 138.4,18.3 116.8,46.1 147,46.1 147,57.3 89.7,57.3 98.2,46.8 
					120.5,19.3 98.4,19.3 98.4,8 				"/>
				<g id="L_14_">
					<polygon class="st7" points="185.9,46.1 185.9,57.3 176.9,57.3 151.3,57.3 151.3,39.2 166.2,20.8 166.2,46.1 					"/>
				</g>
			</g>
		</g>
	</g>
</g>
<g id="_x32_" class="st0">
	<g class="st1">
		<path class="st8" d="M81.2,16.6c-0.1,0-0.3,0-0.4,0c-1.3-0.1-2.6-0.2-3.8-0.2c-4.8-0.2-9.7,0.1-14.5,0.7
			c-6.4,0.9-12.8,2.5-18.8,5.1c-3.2,1.4-6.3,3.1-9.1,5.2c-0.6,0.5-6.2,5.2-7.7,6.9c0,0-0.1,0.1-0.1,0.1c0.7-4.7-2.5-9.9-7.7-14.3
			c-4.5-3.8-9.3-6.1-13.5-5.7c-0.6,0.1-1-0.7-0.6-1.1C23-5.6,56.5-4.2,81.2,16.6z"/>
		<path class="st8" d="M4.8,52.5c0.1,0,0.3,0,0.4,0c1.3,0,2.6-0.1,3.8-0.1c4.8-0.3,9.6-1,14.3-2.1c6.3-1.5,12.5-3.7,18.2-6.9
			c3.1-1.7,5.9-3.8,8.6-6.1c0.6-0.5,5.7-5.8,7-7.7c0,0,0-0.1,0.1-0.1c-0.2,4.7,3.5,9.6,9.1,13.5c4.9,3.4,9.9,5.1,14,4.3
			c0.6-0.1,1,0.6,0.7,1C65,68.8,31.5,70.8,4.8,52.5z"/>
		<g>
			<path class="st8" d="M23,42.5c-0.1,1.9,1.4,3.3,3.3,3.3c1.9-0.1,3.5-1.6,3.5-3.5c0.1-1.4-0.9-2.2-1.7-3.1c-0.9-1-1.6-2.4-1.5-3.9
				c-0.1,1.4-0.6,2.8-1.6,3.8C24.1,40.2,23,40.9,23,42.5z"/>
			<path class="st8" d="M26.6,35.3C26.6,35.3,26.6,35.3,26.6,35.3C26.6,35.3,26.6,35.3,26.6,35.3z"/>
		</g>
		<g>
			<path class="st8" d="M61,22c0.1-1.9-1.4-3.3-3.3-3.3c-1.9,0.1-3.5,1.6-3.5,3.5c-0.1,1.4,0.9,2.2,1.7,3.1c0.9,1,1.6,2.4,1.5,3.9
				c0.1-1.4,0.6-2.8,1.6-3.8C59.9,24.3,60.9,23.6,61,22z"/>
			<path class="st8" d="M57.4,29.2C57.4,29.2,57.4,29.2,57.4,29.2C57.4,29.2,57.4,29.2,57.4,29.2z"/>
		</g>
	</g>
	<g id="ZLD_7_" class="st1">
		<g>
			<g id="_x37_B_19_">
				<g>
					<path class="st8" d="M151.3,19v36.8h14.9V19H151.3z M154.1,49.2h-1.7v-1.7h1.7V49.2z M154.1,47.1h-1.7v-1.7h1.7V47.1z
						 M154.1,45h-1.7v-1.7h1.7V45z M154.1,42.9h-1.7v-1.7h1.7V42.9z M154.2,40.8h-1.7v-1.7h1.7V40.8z M154.2,38.7h-1.7V37h1.7V38.7z
						 M154.2,36.6h-1.7V35h1.7V36.6z M154.2,34.6h-1.7v-1.7h1.7V34.6z M154.2,32.5h-1.7v-1.7h1.7V32.5z M154.2,30.4h-1.7v-1.7h1.7
						V30.4z M154.3,28.3h-1.7v-1.7h1.7V28.3z M154.3,26.2h-1.7v-1.7h1.7V26.2z M154.3,24.1h-1.7v-1.7h1.7V24.1z M154.3,22h-1.7v-1.7
						h1.7V22z M156.2,49.2h-1.7v-1.7h1.7V49.2z M156.2,47.1h-1.7v-1.7h1.7V47.1z M156.3,45h-1.7v-1.7h1.7V45z M156.3,42.9h-1.7v-1.7
						h1.7V42.9z M156.3,40.8h-1.7v-1.7h1.7V40.8z M156.3,38.7h-1.7V37h1.7V38.7z M156.3,36.6h-1.7V35h1.7V36.6z M156.3,34.6h-1.7
						v-1.7h1.7V34.6z M156.4,32.5h-1.7v-1.7h1.7V32.5z M156.4,30.4h-1.7v-1.7h1.7V30.4z M156.4,28.3h-1.7v-1.7h1.7V28.3z
						 M156.4,26.2h-1.7v-1.7h1.7V26.2z M156.4,24.1h-1.7v-1.7h1.7V24.1z M156.4,22h-1.7v-1.7h1.7V22z M158.4,49.2h-1.7v-1.7h1.7
						V49.2z M158.4,47.1h-1.7v-1.7h1.7V47.1z M158.4,45h-1.7v-1.7h1.7V45z M158.4,42.9h-1.7v-1.7h1.7V42.9z M158.5,40.8h-1.7v-1.7
						h1.7V40.8z M158.5,38.7h-1.7V37h1.7V38.7z M158.5,36.6h-1.7V35h1.7V36.6z M158.5,34.6h-1.7v-1.7h1.7V34.6z M158.5,32.5h-1.7
						v-1.7h1.7V32.5z M158.5,30.4h-1.7v-1.7h1.7V30.4z M158.6,28.3h-1.7v-1.7h1.7V28.3z M158.6,26.2h-1.7v-1.7h1.7V26.2z
						 M158.6,24.1h-1.7v-1.7h1.7V24.1z M158.6,22h-1.7v-1.7h1.7V22z M160.6,49.2h-1.7v-1.7h1.7V49.2z M160.6,47.1h-1.7v-1.7h1.7
						V47.1z M160.6,45h-1.7v-1.7h1.7V45z M160.6,42.9h-1.7v-1.7h1.7V42.9z M160.6,40.8h-1.7v-1.7h1.7V40.8z M160.6,38.7h-1.7V37h1.7
						V38.7z M160.6,36.6H159V35h1.7V36.6z M160.6,34.6H159v-1.7h1.7V34.6z M160.7,32.5H159v-1.7h1.7V32.5z M160.7,30.4H159v-1.7h1.7
						V30.4z M160.7,28.3H159v-1.7h1.7V28.3z M160.7,26.2H159v-1.7h1.7V26.2z M160.7,24.1H159v-1.7h1.7V24.1z M160.7,22H159v-1.7h1.7
						V22z M162.7,49.2H161v-1.7h1.7V49.2z M162.7,47.1H161v-1.7h1.7V47.1z M162.7,45H161v-1.7h1.7V45z M162.7,42.9H161v-1.7h1.7
						V42.9z M162.8,40.8h-1.7v-1.7h1.7V40.8z M162.8,38.7h-1.7V37h1.7V38.7z M162.8,36.6h-1.7V35h1.7V36.6z M162.8,34.6h-1.7v-1.7
						h1.7V34.6z M162.8,32.5h-1.7v-1.7h1.7V32.5z M162.8,30.4h-1.7v-1.7h1.7V30.4z M162.9,28.3h-1.7v-1.7h1.7V28.3z M162.9,26.2
						h-1.7v-1.7h1.7V26.2z M162.9,24.1h-1.7v-1.7h1.7V24.1z M162.9,22h-1.7v-1.7h1.7V22z M164.9,49.2h-1.7v-1.7h1.7V49.2z
						 M164.9,47.1h-1.7v-1.7h1.7V47.1z M164.9,45h-1.7v-1.7h1.7V45z M164.9,42.9h-1.7v-1.7h1.7V42.9z M164.9,40.8h-1.7v-1.7h1.7
						V40.8z M164.9,38.7h-1.7V37h1.7V38.7z M165,36.6h-1.7V35h1.7V36.6z M165,34.6h-1.7v-1.7h1.7V34.6z M165,32.5h-1.7v-1.7h1.7
						V32.5z M165,30.4h-1.7v-1.7h1.7V30.4z M165,28.3h-1.7v-1.7h1.7V28.3z M165,26.2h-1.7v-1.7h1.7V26.2z M165.1,24.1h-1.7v-1.7h1.7
						V24.1z M165.1,22h-1.7v-1.7h1.7V22z"/>
					<polygon class="st8" points="164.9,19 152.6,19 152.6,7.7 					"/>
				</g>
			</g>
			<g id="D_18_">
				<g>
					<path class="st8" d="M181.6,57.3V8h21.7c8.7,0,15,2.1,19,6.3c4,4.2,6,10.3,6,18.4c0,8-2,14.1-6,18.3c-4,4.2-10.3,6.3-19,6.3
						H181.6z M196.4,46.2h5c3.6,0,6.4-1.1,8.5-3.2c2.1-2.1,3.1-5.6,3.1-10.3c0-4.8-1-8.2-3.1-10.4c-2.1-2.1-4.9-3.2-8.5-3.2h-5V46.2
						z"/>
				</g>
			</g>
			<polyline id="Z_15_" class="st8" points="98.4,8 146.9,8 138.4,18.3 116.8,46.1 147,46.1 147,57.3 89.7,57.3 98.2,46.8 
				120.5,19.3 98.4,19.3 98.4,8 			"/>
			<g id="L_18_">
				<polygon class="st8" points="185.9,46.1 185.9,57.3 176.9,57.3 151.3,57.3 151.3,39.2 166.2,20.8 166.2,46.1 				"/>
			</g>
		</g>
	</g>
</g>
<g id="_x33_">
	<g>
		<path class="st9" d="M81.2,16.6c-0.1,0-0.3,0-0.4,0c-1.3-0.1-2.6-0.2-3.8-0.2c-4.8-0.2-9.7,0.1-14.5,0.7
			c-6.4,0.9-12.8,2.5-18.8,5.1c-3.2,1.4-6.3,3.1-9.1,5.2c-0.6,0.5-6.2,5.2-7.7,6.9c0,0-0.1,0.1-0.1,0.1c0.7-4.7-2.5-9.9-7.7-14.3
			c-4.5-3.8-9.3-6.1-13.5-5.7c-0.6,0.1-1-0.7-0.6-1.1C23-5.6,56.5-4.2,81.2,16.6z"/>
		<path class="st9" d="M4.8,52.5c0.1,0,0.3,0,0.4,0c1.3,0,2.6-0.1,3.8-0.1c4.8-0.3,9.6-1,14.3-2.1c6.3-1.5,12.5-3.7,18.2-6.9
			c3.1-1.7,5.9-3.8,8.6-6.1c0.6-0.5,5.7-5.8,7-7.7c0,0,0-0.1,0.1-0.1c-0.2,4.7,3.5,9.6,9.1,13.5c4.9,3.4,9.9,5.1,14,4.3
			c0.6-0.1,1,0.6,0.7,1C65,68.8,31.5,70.8,4.8,52.5z"/>
		<g>
			<path class="st9" d="M23,42.5c-0.1,1.9,1.4,3.3,3.3,3.3c1.9-0.1,3.5-1.6,3.5-3.5c0.1-1.4-0.9-2.2-1.7-3.1c-0.9-1-1.6-2.4-1.5-3.9
				c-0.1,1.4-0.6,2.8-1.6,3.8C24.1,40.2,23,40.9,23,42.5z"/>
			<path class="st9" d="M26.6,35.3C26.6,35.3,26.6,35.3,26.6,35.3C26.6,35.3,26.6,35.3,26.6,35.3z"/>
		</g>
		<g>
			<path class="st9" d="M61,22c0.1-1.9-1.4-3.3-3.3-3.3c-1.9,0.1-3.5,1.6-3.5,3.5c-0.1,1.4,0.9,2.2,1.7,3.1c0.9,1,1.6,2.4,1.5,3.9
				c0.1-1.4,0.6-2.8,1.6-3.8C59.9,24.3,60.9,23.6,61,22z"/>
			<path class="st9" d="M57.4,29.2C57.4,29.2,57.4,29.2,57.4,29.2C57.4,29.2,57.4,29.2,57.4,29.2z"/>
		</g>
	</g>
	<g id="ZLD_4_">
		<g>
			<g id="_x37_B_20_">
				<g>
					<path class="st9" d="M151.3,19v36.8h14.9V19H151.3z M154.1,49.2h-1.7v-1.7h1.7V49.2z M154.1,47.1h-1.7v-1.7h1.7V47.1z
						 M154.1,45h-1.7v-1.7h1.7V45z M154.1,42.9h-1.7v-1.7h1.7V42.9z M154.2,40.8h-1.7v-1.7h1.7V40.8z M154.2,38.7h-1.7V37h1.7V38.7z
						 M154.2,36.6h-1.7V35h1.7V36.6z M154.2,34.6h-1.7v-1.7h1.7V34.6z M154.2,32.5h-1.7v-1.7h1.7V32.5z M154.2,30.4h-1.7v-1.7h1.7
						V30.4z M154.3,28.3h-1.7v-1.7h1.7V28.3z M154.3,26.2h-1.7v-1.7h1.7V26.2z M154.3,24.1h-1.7v-1.7h1.7V24.1z M154.3,22h-1.7v-1.7
						h1.7V22z M156.2,49.2h-1.7v-1.7h1.7V49.2z M156.2,47.1h-1.7v-1.7h1.7V47.1z M156.3,45h-1.7v-1.7h1.7V45z M156.3,42.9h-1.7v-1.7
						h1.7V42.9z M156.3,40.8h-1.7v-1.7h1.7V40.8z M156.3,38.7h-1.7V37h1.7V38.7z M156.3,36.6h-1.7V35h1.7V36.6z M156.3,34.6h-1.7
						v-1.7h1.7V34.6z M156.4,32.5h-1.7v-1.7h1.7V32.5z M156.4,30.4h-1.7v-1.7h1.7V30.4z M156.4,28.3h-1.7v-1.7h1.7V28.3z
						 M156.4,26.2h-1.7v-1.7h1.7V26.2z M156.4,24.1h-1.7v-1.7h1.7V24.1z M156.4,22h-1.7v-1.7h1.7V22z M158.4,49.2h-1.7v-1.7h1.7
						V49.2z M158.4,47.1h-1.7v-1.7h1.7V47.1z M158.4,45h-1.7v-1.7h1.7V45z M158.4,42.9h-1.7v-1.7h1.7V42.9z M158.5,40.8h-1.7v-1.7
						h1.7V40.8z M158.5,38.7h-1.7V37h1.7V38.7z M158.5,36.6h-1.7V35h1.7V36.6z M158.5,34.6h-1.7v-1.7h1.7V34.6z M158.5,32.5h-1.7
						v-1.7h1.7V32.5z M158.5,30.4h-1.7v-1.7h1.7V30.4z M158.6,28.3h-1.7v-1.7h1.7V28.3z M158.6,26.2h-1.7v-1.7h1.7V26.2z
						 M158.6,24.1h-1.7v-1.7h1.7V24.1z M158.6,22h-1.7v-1.7h1.7V22z M160.6,49.2h-1.7v-1.7h1.7V49.2z M160.6,47.1h-1.7v-1.7h1.7
						V47.1z M160.6,45h-1.7v-1.7h1.7V45z M160.6,42.9h-1.7v-1.7h1.7V42.9z M160.6,40.8h-1.7v-1.7h1.7V40.8z M160.6,38.7h-1.7V37h1.7
						V38.7z M160.6,36.6H159V35h1.7V36.6z M160.6,34.6H159v-1.7h1.7V34.6z M160.7,32.5H159v-1.7h1.7V32.5z M160.7,30.4H159v-1.7h1.7
						V30.4z M160.7,28.3H159v-1.7h1.7V28.3z M160.7,26.2H159v-1.7h1.7V26.2z M160.7,24.1H159v-1.7h1.7V24.1z M160.7,22H159v-1.7h1.7
						V22z M162.7,49.2H161v-1.7h1.7V49.2z M162.7,47.1H161v-1.7h1.7V47.1z M162.7,45H161v-1.7h1.7V45z M162.7,42.9H161v-1.7h1.7
						V42.9z M162.8,40.8h-1.7v-1.7h1.7V40.8z M162.8,38.7h-1.7V37h1.7V38.7z M162.8,36.6h-1.7V35h1.7V36.6z M162.8,34.6h-1.7v-1.7
						h1.7V34.6z M162.8,32.5h-1.7v-1.7h1.7V32.5z M162.8,30.4h-1.7v-1.7h1.7V30.4z M162.9,28.3h-1.7v-1.7h1.7V28.3z M162.9,26.2
						h-1.7v-1.7h1.7V26.2z M162.9,24.1h-1.7v-1.7h1.7V24.1z M162.9,22h-1.7v-1.7h1.7V22z M164.9,49.2h-1.7v-1.7h1.7V49.2z
						 M164.9,47.1h-1.7v-1.7h1.7V47.1z M164.9,45h-1.7v-1.7h1.7V45z M164.9,42.9h-1.7v-1.7h1.7V42.9z M164.9,40.8h-1.7v-1.7h1.7
						V40.8z M164.9,38.7h-1.7V37h1.7V38.7z M165,36.6h-1.7V35h1.7V36.6z M165,34.6h-1.7v-1.7h1.7V34.6z M165,32.5h-1.7v-1.7h1.7
						V32.5z M165,30.4h-1.7v-1.7h1.7V30.4z M165,28.3h-1.7v-1.7h1.7V28.3z M165,26.2h-1.7v-1.7h1.7V26.2z M165.1,24.1h-1.7v-1.7h1.7
						V24.1z M165.1,22h-1.7v-1.7h1.7V22z"/>
					<polygon class="st9" points="164.9,19 152.6,19 152.6,7.7 					"/>
				</g>
			</g>
			<g id="D_20_">
				<g>
					<path class="st9" d="M181.6,57.3V8h21.7c8.7,0,15,2.1,19,6.3c4,4.2,6,10.3,6,18.4c0,8-2,14.1-6,18.3c-4,4.2-10.3,6.3-19,6.3
						H181.6z M196.4,46.2h5c3.6,0,6.4-1.1,8.5-3.2c2.1-2.1,3.1-5.6,3.1-10.3c0-4.8-1-8.2-3.1-10.4c-2.1-2.1-4.9-3.2-8.5-3.2h-5V46.2
						z"/>
				</g>
			</g>
			<polyline id="Z_16_" class="st9" points="98.4,8 146.9,8 138.4,18.3 116.8,46.1 147,46.1 147,57.3 89.7,57.3 98.2,46.8 
				120.5,19.3 98.4,19.3 98.4,8 			"/>
			<g id="L_20_">
				<polygon class="st9" points="185.9,46.1 185.9,57.3 176.9,57.3 151.3,57.3 151.3,39.2 166.2,20.8 166.2,46.1 				"/>
			</g>
		</g>
	</g>
</g>
</svg>
