<?xml version="1.0" encoding="utf-8"?>
<!-- Generator: Adobe Illustrator 23.0.2, SVG Export Plug-In . SVG Version: 6.00 Build 0)  -->
<svg version="1.1" id="Layer_1" xmlns="http://www.w3.org/2000/svg" xmlns:xlink="http://www.w3.org/1999/xlink" x="0px" y="0px"
	 viewBox="0 0 512 512" style="enable-background:new 0 0 512 512;" xml:space="preserve">
<style type="text/css">
	.st0{fill:#28A4AB;}
	.st1{display:none;}
	.st2{display:inline;fill:#FFFFFF;}
	.st3{display:inline;}
	.st4{fill:#FFFFFF;}
</style>
<circle id="circle" class="st0" cx="256" cy="256" r="256"/>
<g id="icon" class="st1">
	<path class="st2" d="M402.8,194.9c-0.5-0.1-1-0.1-1.6-0.2c-4.9-0.3-9.8-0.7-14.8-0.9c-18.6-0.7-37.2,0.2-55.6,2.7
		c-24.8,3.3-49.3,9.5-72.2,19.6c-12.3,5.5-24.2,12.1-35.1,20c-2.5,1.8-23.9,20.1-29.7,26.7c-0.1,0.1-0.2,0.3-0.3,0.4
		c2.6-17.9-9.7-38.1-29.6-55.1c-17.3-14.8-35.9-23.5-51.9-21.9c-2.4,0.2-3.8-2.6-2.2-4.3C179.1,109.6,307.8,114.8,402.8,194.9z"/>
	<path class="st2" d="M109.2,332.7c0.5,0,1,0,1.6,0c4.9-0.2,9.8-0.2,14.8-0.6c18.5-1.2,37-3.9,55.1-8.2
		c24.3-5.7,48.1-14.3,69.9-26.7c11.7-6.7,22.8-14.5,33-23.4c2.3-2,21.7-22.3,26.9-29.5c0.1-0.1,0.2-0.3,0.2-0.4
		c-0.8,18.1,13.4,37,34.9,51.9c18.7,13,38.1,19.8,53.8,16.6c2.3-0.5,4,2.2,2.6,4C340.3,395.4,211.7,403.1,109.2,332.7z"/>
	<g class="st3">
		<path class="st4" d="M178.8,294.3c-0.3,7.2,5.4,12.8,12.6,12.6c7.2-0.3,13.3-6.3,13.6-13.5c0.2-5.3-3.4-8.3-6.6-11.8
			c-3.6-4-6-9.1-5.6-14.8c-0.4,5.2-2.3,10.6-6,14.6C183.1,285.6,179.1,288.2,178.8,294.3z"/>
		<path class="st4" d="M192.8,266.8C192.8,266.8,192.8,266.8,192.8,266.8C192.8,266.8,192.8,266.8,192.8,266.8z"/>
	</g>
	<g class="st3">
		<path class="st4" d="M325.1,215.7c0.3-7.2-5.4-12.8-12.6-12.6c-7.2,0.3-13.3,6.3-13.6,13.5c-0.2,5.3,3.4,8.3,6.6,11.8
			c3.6,4,6,9.1,5.6,14.8c0.4-5.2,2.3-10.6,6-14.6C320.8,224.4,324.8,221.8,325.1,215.7z"/>
		<path class="st4" d="M311.1,243.2C311.1,243.3,311.1,243.3,311.1,243.2C311.1,243.3,311.1,243.2,311.1,243.2z"/>
	</g>
</g>
<g id="ZLD">
	<g>
		<g id="_x37_B_9_">
			<path class="st4" d="M233.4,215.7V325h44.2V215.7H233.4z M241.6,305.6h-5v-5h5V305.6z M241.6,299.4h-5v-5h5V299.4z M241.7,293.2
				h-5v-5h5V293.2z M241.7,286.9h-5v-5h5V286.9z M241.8,280.7h-5v-5h5V280.7z M241.8,274.5h-5v-5h5V274.5z M241.9,268.3h-5v-5h5
				V268.3z M241.9,262.1h-5v-5h5V262.1z M242,255.9h-5v-5h5V255.9z M242,249.7h-5v-5h5V249.7z M242.1,243.5h-5v-5h5V243.5z
				 M242.1,237.3h-5v-5h5V237.3z M242.2,231.1h-5v-5h5V231.1z M242.2,224.9h-5v-5h5V224.9z M248,305.6h-5v-5h5V305.6z M248,299.4h-5
				v-5h5V299.4z M248.1,293.2h-5v-5h5V293.2z M248.1,286.9h-5v-5h5V286.9z M248.2,280.7h-5v-5h5V280.7z M248.2,274.5h-5v-5h5V274.5z
				 M248.3,268.3h-5v-5h5V268.3z M248.3,262.1h-5v-5h5V262.1z M248.4,255.9h-5v-5h5V255.9z M248.4,249.7h-5v-5h5V249.7z
				 M248.5,243.5h-5v-5h5V243.5z M248.5,237.3h-5v-5h5V237.3z M248.6,231.1h-5v-5h5V231.1z M248.6,224.9h-5v-5h5V224.9z
				 M254.4,305.6h-5v-5h5V305.6z M254.4,299.4h-5v-5h5V299.4z M254.5,293.2h-5v-5h5V293.2z M254.5,286.9h-5v-5h5V286.9z
				 M254.6,280.7h-5v-5h5V280.7z M254.6,274.5h-5v-5h5V274.5z M254.7,268.3h-5v-5h5V268.3z M254.7,262.1h-5v-5h5V262.1z
				 M254.8,255.9h-5v-5h5V255.9z M254.8,249.7h-5v-5h5V249.7z M254.9,243.5h-5v-5h5V243.5z M254.9,237.3h-5v-5h5V237.3z M255,231.1
				h-5v-5h5V231.1z M255,224.9h-5v-5h5V224.9z M260.8,305.6h-5v-5h5V305.6z M260.8,299.4h-5v-5h5V299.4z M260.9,293.2h-5v-5h5V293.2
				z M260.9,286.9h-5v-5h5V286.9z M261,280.7h-5v-5h5V280.7z M261,274.5h-5v-5h5V274.5z M261.1,268.3h-5v-5h5V268.3z M261.1,262.1
				h-5v-5h5V262.1z M261.2,255.9h-5v-5h5V255.9z M261.2,249.7h-5v-5h5V249.7z M261.3,243.5h-5v-5h5V243.5z M261.3,237.3h-5v-5h5
				V237.3z M261.4,231.1h-5v-5h5V231.1z M261.4,224.9h-5v-5h5V224.9z M267.2,305.6h-5v-5h5V305.6z M267.2,299.4h-5v-5h5V299.4z
				 M267.3,293.2h-5v-5h5V293.2z M267.3,286.9h-5v-5h5V286.9z M267.4,280.7h-5v-5h5V280.7z M267.4,274.5h-5v-5h5V274.5z
				 M267.5,268.3h-5v-5h5V268.3z M267.5,262.1h-5v-5h5V262.1z M267.6,255.9h-5v-5h5V255.9z M267.6,249.7h-5v-5h5V249.7z
				 M267.7,243.5h-5v-5h5V243.5z M267.7,237.3h-5v-5h5V237.3z M267.8,231.1h-5v-5h5V231.1z M267.8,224.9h-5v-5h5V224.9z
				 M273.6,305.6h-5v-5h5V305.6z M273.6,299.4h-5v-5h5V299.4z M273.7,293.2h-5v-5h5V293.2z M273.7,286.9h-5v-5h5V286.9z
				 M273.8,280.7h-5v-5h5V280.7z M273.8,274.5h-5v-5h5V274.5z M273.9,268.3h-5v-5h5V268.3z M273.9,262.1h-5v-5h5V262.1z M274,255.9
				h-5v-5h5V255.9z M274,249.7h-5v-5h5V249.7z M274.1,243.5h-5v-5h5V243.5z M274.1,237.3h-5v-5h5V237.3z M274.2,231.1h-5v-5h5V231.1
				z M274.2,224.9h-5v-5h5V224.9z"/>
			<polygon class="st4" points="273.6,215.7 237.2,215.7 237.2,182.3 			"/>
		</g>
		<path id="D_8_" class="st4" d="M323.3,329.7V183.2h64.4c25.8,0,44.6,6.2,56.4,18.7c11.8,12.5,17.7,30.7,17.7,54.7
			c0,23.9-5.9,42-17.7,54.5c-11.8,12.5-30.6,18.7-56.4,18.7H323.3z M367.3,296.8h14.9c10.7,0,19.1-3.2,25.3-9.6
			c6.2-6.4,9.2-16.6,9.2-30.7c0-14.2-3.1-24.5-9.2-30.9c-6.2-6.4-14.6-9.6-25.3-9.6h-14.9V296.8z"/>
		<polyline id="Z_8_" class="st4" points="76.2,183.2 220.3,183.2 195,213.7 130.9,296.5 220.5,296.5 220.5,329.7 50.2,329.7 
			75.5,298.5 141.7,216.8 76.2,216.8 76.2,183.2 		"/>
		<polygon id="L_8_" class="st4" points="336.3,296.5 336.3,329.7 309.4,329.7 233.5,329.7 233.5,275.9 277.6,221.3 277.6,296.5 		
			"/>
	</g>
</g>
</svg>
